<?xml version="1.0" encoding="UTF-8"?>
<svg version="1.1" xmlns="http://www.w3.org/2000/svg" width="731" height="252">
<path d="M0 0 C-0.18175781 0.58265625 -0.36351563 1.1653125 -0.55078125 1.765625 C-2.03667518 6.61192522 -3.44425944 11.4769686 -4.75 16.375 C-5.01296875 17.35210938 -5.2759375 18.32921875 -5.546875 19.3359375 C-6.19376731 22.81659024 -6.19376731 22.81659024 -5 26 C-2.73502987 27.3434235 -0.56513262 28.46117988 1.8125 29.5625 C14.12598647 35.71703836 22.3728432 44.57570264 30 56 C31.26669409 57.83619567 32.53736782 59.66965402 33.8125 61.5 C34.62654297 62.69109375 34.62654297 62.69109375 35.45703125 63.90625 C36.92420204 66.01580118 36.92420204 66.01580118 38.69921875 67.65625 C40 69 40 69 40 71 C40.66 71 41.32 71 42 71 C42 71.66 42 72.32 42 73 C42.58193115 73.27094482 43.1638623 73.54188965 43.76342773 73.82104492 C47.56207985 75.82341269 50.73750193 78.61598941 54.0625 81.3125 C54.78244141 81.88162109 55.50238281 82.45074219 56.24414062 83.03710938 C61.50419244 87.29106029 65.18839271 91.02017729 66 98 C66.51053513 105.53039311 65.55217056 112.71863786 60.8125 118.8125 C59.884375 119.534375 58.95625 120.25625 58 121 C57.43410156 121.45246094 56.86820313 121.90492188 56.28515625 122.37109375 C51.72124976 125.66569291 47.28995393 127.16667022 41.66015625 127.4609375 C37.47715791 126.73613015 35.70339848 124.32793482 33.015625 121.203125 C26.59143919 114.18134051 17.04542361 110.65034679 7.71484375 109.7890625 C3.73187423 109.72074398 -0.20541867 110.01343376 -4.171875 110.33984375 C-18.1207363 111.4285281 -30.17961284 110.35383131 -42 102 C-49.16099997 95.69343752 -53.37393831 87.07184947 -56 78 C-55.32112569 93.34255946 -49.51024288 105.22930697 -38.25 115.75 C-31.93076427 120.91800863 -24.67269081 124.83504541 -17.66015625 128.96875 C1.52727667 140.46752074 17.17790953 155.46594317 23.25 177.55859375 C26.89910776 194.30267673 26.89910776 194.30267673 24 203 C-18.9 203 -61.8 203 -106 203 C-106.33 194.42 -106.66 185.84 -107 177 C-108.70625457 167.45761335 -111.06608766 158.65998335 -114.0625 149.5 C-122.53927886 123.54069126 -122.84881596 95.35523272 -112 70 C-111.56945312 68.98679687 -111.13890625 67.97359375 -110.6953125 66.9296875 C-100.25154438 44.33102541 -79.67697433 26.60856606 -56.5625 17.8125 C-52.7796262 16.48715273 -49.04514812 15.56905854 -45.125 14.75 C-40.31899959 13.62571713 -36.86573562 11.83833682 -32.75 9.125 C-24.54582842 3.75121814 -9.80357248 -3.39354432 0 0 Z M-7 51 C-3.54961065 56.43697715 -0.93816298 59.39554255 5 62 C8.29376525 62.33690298 8.29376525 62.33690298 11 62 C11.04510361 59.62102997 11.04510361 59.62102997 10 57 C4.73573016 53.07979906 -0.58735735 51.98060531 -7 51 Z " fill="#ffffff" transform="translate(128,7)"/>
<path d="M0 0 C97.68 0 195.36 0 296 0 C294.28924725 3.42150549 293.26002971 4.96853041 290.625 7.5 C290.03976562 8.0671875 289.45453125 8.634375 288.8515625 9.21875 C288.24054688 9.8065625 287.62953125 10.394375 287 11 C286.51018143 11.68416992 286.02036285 12.36833984 285.51570129 13.07324219 C281.59025581 16.0797131 277.71680478 15.60327595 272.8972168 15.609375 C271.33797076 15.63424736 271.33797076 15.63424736 269.74722481 15.65962219 C266.25199495 15.70953689 262.75723953 15.73008698 259.26171875 15.75 C256.76281873 15.77800002 254.26393239 15.80724563 251.76506042 15.83764648 C243.5101354 15.92785928 235.25534213 15.97051015 227 16 C225.9334649 16.00393139 225.9334649 16.00393139 224.84538364 16.0079422 C202.28110303 16.088844 179.71703892 16.0554712 157.15273285 16.00520325 C146.20831045 15.98086954 135.26389577 15.95824325 124.31945151 15.94658184 C119.9637209 15.94164641 115.60803803 15.93187229 111.25232661 15.91815186 C109.21998902 15.91249172 107.18766313 15.90911479 105.15531921 15.9067688 C102.68943553 15.90390364 100.22355232 15.89744383 97.75769043 15.88668823 C96.6705928 15.88661774 95.58349518 15.88654724 94.4634552 15.88647461 C93.52313855 15.884254 92.5828219 15.88203339 91.61401081 15.87974548 C88.9822798 16.0008152 86.56503077 16.41427117 84 17 C84 16.34 84 15.68 84 15 C82.85587646 15.16265854 81.71175293 15.32531708 80.53295898 15.49290466 C76.16170093 16.03651415 71.87287886 16.13469356 67.47265625 16.11352539 C66.66194168 16.11367142 65.85122711 16.11381744 65.01594543 16.1139679 C62.36476871 16.11327718 59.71366429 16.10552458 57.0625 16.09765625 C55.21305378 16.09578908 53.36360705 16.09436659 51.51416016 16.09336853 C46.66777153 16.08956692 41.82141331 16.07975694 36.97503662 16.06866455 C32.02112235 16.05839958 27.06720312 16.05386005 22.11328125 16.04882812 C12.40884088 16.03813239 2.70442298 16.02108452 -7 16 C-6 11 -6 11 0 0 Z " fill="#E6CD14" transform="translate(235,209)"/>
<path d="M0 0 C8.27220769 -0.05490648 16.54427832 -0.08502822 24.81665039 -0.09893799 C26.44395081 -0.10309219 26.44395081 -0.10309219 28.10412598 -0.10733032 C35.17611616 -0.12058509 42.24544691 -0.08121251 49.31665039 0.02606201 C50.29585449 0.03931519 51.27505859 0.05256836 52.28393555 0.06622314 C55.13975306 0.11538377 57.99309576 0.19421452 60.84790039 0.28387451 C61.68832886 0.29748016 62.52875732 0.31108582 63.39465332 0.32510376 C69.72143465 0.57724182 75.26225753 2.1015907 79.93737793 6.57785034 C84.07502351 11.32490396 84.43386688 16.93080446 84.31665039 23.02606201 C83.99699569 25.36130856 83.66508589 27.69493605 83.31665039 30.02606201 C63.532896 30.1798599 43.74910656 30.32789597 23.96525764 30.46902561 C14.77979406 30.53468598 5.59435176 30.60224959 -3.59106445 30.67425537 C-11.59473928 30.73699253 -19.598431 30.79619782 -27.60216343 30.85111755 C-31.84217051 30.88033601 -36.08214759 30.91135311 -40.32210922 30.94659615 C-44.30942251 30.97968343 -48.29674107 31.00806347 -52.28411484 31.03276825 C-53.75071503 31.04269664 -55.21730454 31.05437333 -56.68387604 31.06789207 C-58.67999139 31.08603558 -60.67616507 31.0973891 -62.67233276 31.10835266 C-63.79138945 31.1166488 -64.91044613 31.12494493 -66.06341362 31.13349247 C-68.68334961 31.02606201 -68.68334961 31.02606201 -70.68334961 30.02606201 C-72.62762629 22.12351806 -71.46747024 14.47371357 -68.12084961 7.15106201 C-64.85303565 2.96155694 -61.7600599 2.19365718 -56.68334961 1.02606201 C-53.1427254 0.60664959 -49.6370901 0.53848407 -46.07397461 0.51434326 C-45.05378235 0.49630142 -44.03359009 0.47825958 -42.98248291 0.45967102 C-39.63280676 0.40473946 -36.2833132 0.37101738 -32.93334961 0.33856201 C-30.58242778 0.30626823 -28.23151626 0.27321545 -25.88061523 0.23944092 C-17.25397052 0.12445979 -8.62716339 0.0610426 0 0 Z " fill="#ffffff" transform="translate(80.683349609375,213.97393798828125)"/>
<path d="M0 0 C5.70369551 4.36539824 9.17065143 9.56839186 10.68334961 16.62548828 C12.28921154 29.06276773 12.22589255 41.41349827 12.125 53.9375 C12.11494323 56.12890213 12.10582218 58.32030876 12.09765625 60.51171875 C12.07759276 65.82051811 12.03840788 71.12867684 12 76.4375 C5.07 76.4375 -1.86 76.4375 -9 76.4375 C-9.66 75.1175 -10.32 73.7975 -11 72.4375 C-11.33 72.1075 -11.66 71.7775 -12 71.4375 C-12.68707031 71.85902344 -13.37414062 72.28054687 -14.08203125 72.71484375 C-14.98308594 73.26269531 -15.88414062 73.81054688 -16.8125 74.375 C-17.70582031 74.92027344 -18.59914063 75.46554688 -19.51953125 76.02734375 C-25.85694389 79.63018778 -33.61724146 79.25967184 -40.64453125 77.94140625 C-47.12853015 75.98626518 -51.74058794 72.80564123 -55.3125 66.9375 C-58.49498398 60.33679248 -58.93706454 53.99537541 -56.8125 46.9375 C-53.48585012 37.94944138 -48.52343001 33.72670994 -40 29.4375 C-31.58752247 25.97353867 -19.73715019 24.5251166 -11 27.4375 C-12.13233075 19.96790983 -12.13233075 19.96790983 -17 14.4375 C-22.85013292 11.51243354 -30.46890167 13.33490376 -36.375 15.25 C-39.39392869 16.31191427 -41.97954761 17.42522271 -44.7265625 19.07421875 C-47 20.4375 -47 20.4375 -49 20.4375 C-49.86772029 18.35977529 -50.71873619 16.27506823 -51.5625 14.1875 C-52.03816406 13.02734375 -52.51382812 11.8671875 -53.00390625 10.671875 C-54 7.4375 -54 7.4375 -53.9765625 5.20703125 C-51.10659217 0.00664501 -42.71642376 -2.06549463 -37.37109375 -3.61328125 C-24.75847217 -6.48411529 -11.56893019 -6.91003783 0 0 Z M-33.625 45.0625 C-35.77347077 48.77349496 -35.73638013 52.26467924 -35 56.4375 C-33.66666667 59.10416667 -33.66666667 59.10416667 -31 60.4375 C-24.9819971 61.94200072 -20.45563985 61.48588413 -15 58.4375 C-12.07063456 56.1314038 -11.42522896 54.12118757 -10.75 50.5 C-10.57984375 49.64535156 -10.4096875 48.79070312 -10.234375 47.91015625 C-9.99732284 45.40925591 -10.10060699 43.77487601 -11 41.4375 C-17.81386434 38.03056783 -27.56323848 41.30998096 -33.625 45.0625 Z " fill="#ffffff" transform="translate(463,109.5625)"/>
<path d="M0 0 C7.03154483 7.19717008 9.13513517 15.10809 9.11352539 25.00537109 C9.11341209 26.74649673 9.11341209 26.74649673 9.11329651 28.52279663 C9.10813522 29.76050812 9.10297394 30.9982196 9.09765625 32.2734375 C9.0962413 33.55231842 9.09482635 34.83119934 9.09336853 36.14883423 C9.08873022 39.53211336 9.07976081 42.91532386 9.06866455 46.29858398 C9.05839515 49.75764374 9.05385911 53.21671061 9.04882812 56.67578125 C9.03781609 63.4505421 9.02056018 70.22526167 9 77 C1.74 77 -5.52 77 -13 77 C-13.04898438 73.63941406 -13.09796875 70.27882813 -13.1484375 66.81640625 C-13.20254118 63.539752 -13.25981176 60.26316721 -13.31738281 56.98657227 C-13.35552223 54.72002396 -13.39040057 52.45341823 -13.421875 50.18676758 C-13.4678534 46.91727254 -13.52579266 43.64816775 -13.5859375 40.37890625 C-13.59748871 39.37541641 -13.60903992 38.37192657 -13.62094116 37.33802795 C-13.67695167 26.69879128 -13.67695167 26.69879128 -18.125 17.4375 C-21.9076433 15.54617835 -24.85022043 15.30977297 -29 16 C-33.25845906 17.79801605 -34.93310199 19.93402406 -37 24 C-38.96304072 34.94938407 -38.08828829 46.72285979 -38 57.8125 C-37.97346622 61.23567325 -37.95352621 64.65879469 -37.9375 68.08203125 C-37.92920166 68.86415482 -37.92090332 69.64627838 -37.91235352 70.45210266 C-37.90381525 72.30161283 -37.94657926 74.15124177 -38 76 C-38.33 76.33 -38.66 76.66 -39 77 C-46.26 77 -53.52 77 -61 77 C-61 50.6 -61 24.2 -61 -3 C-54.07 -3 -47.14 -3 -40 -3 C-39.67 -0.36 -39.34 2.28 -39 5 C-38.67 4.67 -38.34 4.34 -38 4 C-27.27396055 -5.57886946 -12.44383133 -8.32761179 0 0 Z " fill="#ffffff" transform="translate(580,109)"/>
<path d="M0 0 C8.49246844 7.15062312 12.36565529 15.4322155 13.625 26.3125 C13.71367824 28.93633256 13.75519866 31.56217448 13.75 34.1875 C13.75386719 36.16363281 13.75386719 36.16363281 13.7578125 38.1796875 C13.625 41.3125 13.625 41.3125 12.625 42.3125 C11.12081261 42.40561889 9.61228644 42.42996028 8.10522461 42.42602539 C6.66384377 42.42591209 6.66384377 42.42591209 5.19334412 42.42579651 C4.148564 42.42063522 3.10378387 42.41547394 2.02734375 42.41015625 C0.96334854 42.4087413 -0.10064667 42.40732635 -1.19688416 42.40586853 C-4.61045083 42.40025064 -8.023953 42.38769511 -11.4375 42.375 C-13.74544176 42.36998731 -16.05338455 42.365424 -18.36132812 42.36132812 C-24.03257426 42.3502754 -29.70378253 42.33351987 -35.375 42.3125 C-34.76856505 43.93016148 -34.15203634 45.54404147 -33.53125 47.15625 C-33.18900391 48.05537109 -32.84675781 48.95449219 -32.49414062 49.88085938 C-30.42899547 54.36795487 -26.74303273 56.40148568 -22.375 58.3125 C-11.87361886 60.4159393 -1.626199 58.70903275 7.625 53.3125 C9.70635307 58.61048964 11.33791613 63.76813871 12.625 69.3125 C1.54777505 77.28810196 -10.90632808 79.52883381 -24.375 78.3125 C-33.96425599 76.74641548 -42.04918324 72.8035988 -48.375 65.3125 C-57.21504198 52.88682875 -58.8921622 39.87573621 -56.94140625 25.0078125 C-54.84097645 14.96227869 -49.90589056 6.20809371 -41.2734375 0.453125 C-28.83583303 -7.01967439 -12.45368712 -8.75575321 0 0 Z M-31.375 15.3125 C-32.83376972 17.67227455 -33.53892113 19.60753894 -34.375 22.3125 C-34.045 23.3025 -33.715 24.2925 -33.375 25.3125 C-33.705 25.6425 -34.035 25.9725 -34.375 26.3125 C-34.375 26.6425 -34.375 26.9725 -34.375 27.3125 C-25.465 27.3125 -16.555 27.3125 -7.375 27.3125 C-8.27179675 19.32055573 -8.27179675 19.32055573 -12.375 13.3125 C-18.51527059 9.21898627 -26.07674417 10.27269568 -31.375 15.3125 Z " fill="#ffffff" transform="translate(655.375,109.6875)"/>
<path d="M0 0 C1 1 1 1 1.11352539 3.04125977 C1.10828857 3.91580811 1.10305176 4.79035645 1.09765625 5.69140625 C1.09443359 6.63564453 1.09121094 7.57988281 1.08789062 8.55273438 C1.07532227 10.04256836 1.07532227 10.04256836 1.0625 11.5625 C1.05798828 12.55958984 1.05347656 13.55667969 1.04882812 14.58398438 C1.03700023 17.05601487 1.01906415 19.52801472 1 22 C6.94 22 12.88 22 19 22 C19 27.94 19 33.88 19 40 C6.375 41.125 6.375 41.125 3 40 C1.37912719 43.24174563 1.79428642 46.80339189 1.76171875 50.3671875 C1.753647 51.19832062 1.74557526 52.02945374 1.73725891 52.88577271 C1.72341929 54.64599522 1.71269658 56.40624455 1.70483398 58.16650391 C1.68761127 60.8576133 1.64372463 63.54749719 1.59960938 66.23828125 C1.58948323 67.94790763 1.58096688 69.65754445 1.57421875 71.3671875 C1.55671066 72.17147186 1.53920258 72.97575623 1.52116394 73.80441284 C1.53515901 77.41147932 1.68496668 79.56334602 3.82446289 82.52880859 C6.94797689 84.64106259 9.06154512 84.19261459 12.75 83.75 C15.84375 83.37875 15.84375 83.37875 19 83 C19 88.94 19 94.88 19 101 C13.19994734 103.32002107 8.77491852 104.15091332 2.5625 104.1875 C1.47066406 104.20167969 0.37882812 104.21585937 -0.74609375 104.23046875 C-6.72781586 103.80679335 -11.35574006 101.75493356 -16 98 C-19.87689072 92.93502987 -21.99304152 88.39110268 -22.28125 81.99609375 C-22.31863281 81.25552734 -22.35601562 80.51496094 -22.39453125 79.75195312 C-22.46502139 78.20508621 -22.535333 76.65821115 -22.60546875 75.11132812 C-22.76940983 71.86925186 -22.96800281 69.09599157 -24 66 C-23.34 66 -22.68 66 -22 66 C-22 65.01 -22 64.02 -22 63 C-22.66 62.67 -23.32 62.34 -24 62 C-23.505 61.505 -23.505 61.505 -23 61 C-23.495 59.515 -23.495 59.515 -24 58 C-23.34 58 -22.68 58 -22 58 C-22.52268466 55.23723823 -23.10869587 52.6739124 -24 50 C-23.34 50 -22.68 50 -22 50 C-22.495 48.515 -22.495 48.515 -23 47 C-23.66 46.67 -24.32 46.34 -25 46 C-25 44.02 -25 42.04 -25 40 C-26.98 40 -28.96 40 -31 40 C-31.90158617 35.60476744 -32.06072357 31.50993434 -31.9375 27.05078125 C-31.90791906 24.79760585 -31.90791906 24.79760585 -33 22 C-29.37 22 -25.74 22 -22 22 C-22.144375 20.576875 -22.28875 19.15375 -22.4375 17.6875 C-22.51871094 16.88699219 -22.59992188 16.08648437 -22.68359375 15.26171875 C-22.95265693 12.83912821 -22.95265693 12.83912821 -24 10 C-23.34 10 -22.68 10 -22 10 C-22.33 7.36 -22.66 4.72 -23 2 C-7.61928616 -0.70006262 -7.61928616 -0.70006262 0 0 Z " fill="#ffffff" transform="translate(328,84)"/>
<path d="M0 0 C1.19399414 0.00483398 1.19399414 0.00483398 2.41210938 0.00976562 C3.22873047 0.01814453 4.04535156 0.02652344 4.88671875 0.03515625 C5.72267578 0.03966797 6.55863281 0.04417969 7.41992188 0.04882812 C9.47138524 0.06055077 11.52281148 0.07848422 13.57421875 0.09765625 C14.30610714 3.38095087 14.6995938 6.41714161 14.70120239 9.77883911 C14.70402222 10.69010559 14.70684204 11.60137207 14.70974731 12.54025269 C14.70772308 13.52744293 14.70569885 14.51463318 14.70361328 15.53173828 C14.7053656 16.58103516 14.70711792 17.63033203 14.70892334 18.71142578 C14.71332093 22.17612364 14.71041162 25.64077038 14.70703125 29.10546875 C14.70770479 31.51252248 14.70867523 33.91957614 14.70993042 36.32662964 C14.71140447 41.36863859 14.70926183 46.41062982 14.70458984 51.45263672 C14.69888662 57.92376169 14.70217718 64.39484524 14.70816231 70.8659687 C14.71177057 75.83466913 14.71062821 80.80335968 14.70803452 85.77206039 C14.7073663 88.15875122 14.70819 90.54544293 14.71051407 92.93213272 C14.71304557 96.26223385 14.70919316 99.59226722 14.70361328 102.92236328 C14.70563751 103.91360199 14.70766174 104.9048407 14.70974731 105.92611694 C14.70551758 107.28455719 14.70551758 107.28455719 14.70120239 108.67044067 C14.70082537 109.45761034 14.70044834 110.24478001 14.70005989 111.0558033 C14.57421875 113.09765625 14.57421875 113.09765625 13.57421875 116.09765625 C5.98421875 116.09765625 -1.60578125 116.09765625 -9.42578125 116.09765625 C-9.42578125 78.14765625 -9.42578125 40.19765625 -9.42578125 1.09765625 C-5.92999552 0.3984991 -3.43171332 -0.02468859 0 0 Z " fill="#ffffff" transform="translate(241.42578125,69.90234375)"/>
<path d="M0 0 C0.88042969 0.09023437 1.76085937 0.18046875 2.66796875 0.2734375 C4.8125 0.625 4.8125 0.625 5.8125 1.625 C5.89935603 3.18672745 5.91952219 4.75229344 5.91015625 6.31640625 C5.90693359 7.26064453 5.90371094 8.20488281 5.90039062 9.17773438 C5.88782227 10.66756836 5.88782227 10.66756836 5.875 12.1875 C5.87048828 13.18458984 5.86597656 14.18167969 5.86132812 15.20898438 C5.84950007 17.68104849 5.83301849 20.15299518 5.8125 22.625 C4.73871094 22.57859375 3.66492188 22.5321875 2.55859375 22.484375 C-6.14390382 21.94176216 -6.14390382 21.94176216 -14.4375 24 C-19.41444282 28.75071814 -21.36444064 35.08301308 -21.64160156 41.89111328 C-21.64098014 43.74263382 -21.61909771 45.59424526 -21.578125 47.4453125 C-21.57246521 48.42998505 -21.56680542 49.41465759 -21.56097412 50.4291687 C-21.53880111 53.53663287 -21.48864185 56.64289157 -21.4375 59.75 C-21.41741031 61.87237904 -21.3991639 63.99477637 -21.3828125 66.1171875 C-21.33899907 71.28691418 -21.27010627 76.45575359 -21.1875 81.625 C-24.6032233 81.85134311 -28.01997322 82.05292113 -31.4375 82.25 C-32.88962891 82.34667969 -32.88962891 82.34667969 -34.37109375 82.4453125 C-35.30566406 82.496875 -36.24023438 82.5484375 -37.203125 82.6015625 C-38.06196289 82.65393066 -38.92080078 82.70629883 -39.80566406 82.76025391 C-42.41629397 82.6120078 -43.95693856 81.94798482 -46.1875 80.625 C-46.001875 79.738125 -45.81625 78.85125 -45.625 77.9375 C-45.20238496 74.73770038 -45.51707 72.72573876 -46.1875 69.625 C-45.8575 68.635 -45.5275 67.645 -45.1875 66.625 C-45.09817692 64.52409979 -45.06990731 62.42042123 -45.07397461 60.31762695 C-45.07405014 59.01650467 -45.07412567 57.71538239 -45.07420349 56.37483215 C-45.07931015 54.9543148 -45.08452615 53.53379783 -45.08984375 52.11328125 C-45.09170909 50.66025338 -45.09313244 49.20722489 -45.09413147 47.75419617 C-45.09794754 43.93193828 -45.10777007 40.10971845 -45.11883545 36.28747559 C-45.12906913 32.38631709 -45.13363329 28.48515243 -45.13867188 24.58398438 C-45.14939315 16.93097023 -45.16698259 9.2779953 -45.1875 1.625 C-37.9275 1.625 -30.6675 1.625 -23.1875 1.625 C-21.7091774 4.58164519 -22.12717217 7.36729737 -22.1875 10.625 C-21.89875 9.903125 -21.61 9.18125 -21.3125 8.4375 C-16.46013594 2.01525345 -7.83014872 -0.85588036 0 0 Z " fill="#ffffff" transform="translate(399.1875,104.375)"/>
<path d="M0 0 C1 1 1 1 1.11352539 3.04125977 C1.10828857 3.91580811 1.10305176 4.79035645 1.09765625 5.69140625 C1.09443359 6.63564453 1.09121094 7.57988281 1.08789062 8.55273438 C1.07532227 10.04256836 1.07532227 10.04256836 1.0625 11.5625 C1.05798828 12.55958984 1.05347656 13.55667969 1.04882812 14.58398438 C1.03700007 17.05604849 1.02051849 19.52799518 1 22 C0.01 22.495 0.01 22.495 -1 23 C-1 22.34 -1 21.68 -1 21 C-2.32 21.33 -3.64 21.66 -5 22 C-5 21.34 -5 20.68 -5 20 C-13.60673831 21.40702364 -13.60673831 21.40702364 -21.1875 25.375 C-24.39513405 30.02053897 -25.25681127 33.83562725 -25.4140625 39.453125 C-25.45273437 40.70520752 -25.49140625 41.95729004 -25.53125 43.24731445 C-25.56277239 44.58153656 -25.59401772 45.91576524 -25.625 47.25 C-25.66346788 48.60703196 -25.70253213 49.96404714 -25.7421875 51.32104492 C-25.98283969 59.96252222 -26.07511039 68.59462861 -25.9375 77.23828125 C-26 80 -26 80 -27 81 C-28.78071246 81.08726223 -30.5648314 81.10699041 -32.34765625 81.09765625 C-33.42724609 81.09443359 -34.50683594 81.09121094 -35.61914062 81.08789062 C-36.75544922 81.07951172 -37.89175781 81.07113281 -39.0625 81.0625 C-40.20267578 81.05798828 -41.34285156 81.05347656 -42.51757812 81.04882812 C-45.34510351 81.03699747 -48.1725264 81.0205141 -51 81 C-51.042721 79.33388095 -51.04063832 77.66617115 -51 76 C-50.505 75.505 -50.505 75.505 -50 75 C-49.91163468 73.34587011 -49.89309896 71.68795684 -49.90234375 70.03149414 C-49.90564697 68.96850601 -49.9089502 67.90551788 -49.91235352 66.81031799 C-49.92065186 65.64701462 -49.9289502 64.48371124 -49.9375 63.28515625 C-49.94128662 62.08628281 -49.94507324 60.88740936 -49.94897461 59.65220642 C-49.96529962 54.51101482 -49.99300632 49.369902 -50.02050781 44.22875977 C-50.09124977 29.78157567 -50.08127869 15.41262434 -49 1 C-45.52085059 0.97112186 -42.04173169 0.95324313 -38.5625 0.9375 C-37.56927734 0.92912109 -36.57605469 0.92074219 -35.55273438 0.91210938 C-34.60849609 0.90888672 -33.66425781 0.90566406 -32.69140625 0.90234375 C-31.37958374 0.89448853 -31.37958374 0.89448853 -30.04125977 0.88647461 C-28 1 -28 1 -27 2 C-26.63239269 4.32817964 -26.29758419 6.6618385 -26 9 C-25.34 8.01 -24.68 7.02 -24 6 C-23.34 6 -22.68 6 -22 6 C-22 5.34 -22 4.68 -22 4 C-14.25756128 -0.13058145 -8.76504738 -1.62986418 0 0 Z " fill="#ffffff" transform="translate(726,105)"/>
<path d="M0 0 C7.92 0 15.84 0 24 0 C24 26.4 24 52.8 24 80 C16.08 80 8.16 80 0 80 C0.01160156 77.24269531 0.02320313 74.48539062 0.03515625 71.64453125 C0.0429603 68.96704219 0.0490294 66.2895544 0.05493164 63.61206055 C0.05995303 61.75463288 0.06677141 59.89720915 0.07543945 58.03979492 C0.08760117 55.36636379 0.09325033 52.69298504 0.09765625 50.01953125 C0.10281754 49.19226028 0.10797882 48.36498932 0.11329651 47.51264954 C0.11368399 43.50892753 -0.14713339 39.92666567 -1 36 C-0.7670747 34.17017245 -0.52937426 32.34076739 -0.26220703 30.515625 C0.32592174 24.87309349 0.09992973 19.16628504 0.0625 13.5 C0.05573242 11.5509375 0.05573242 11.5509375 0.04882812 9.5625 C0.0371093 6.37497999 0.01917604 3.18748387 0 0 Z " fill="#ffffff" transform="translate(266,106)"/>
<path d="M0 0 C7.26 0 14.52 0 22 0 C22 26.4 22 52.8 22 80 C14.74 80 7.48 80 0 80 C0 53.6 0 27.2 0 0 Z " fill="#ffffff" transform="translate(486,106)"/>
<path d="M0 0 C1.32493469 0.02696457 1.32493469 0.02696457 2.67663574 0.05447388 C3.61356262 0.05374374 4.5504895 0.05301361 5.51580811 0.05226135 C8.61134827 0.05574361 11.70538204 0.09463569 14.80065918 0.13381958 C16.94727761 0.14314541 19.09390668 0.15026261 21.24053955 0.15525818 C26.8895406 0.17434589 32.53789851 0.22346269 38.18664551 0.27877808 C43.95112406 0.3299319 49.71570656 0.352764 55.48034668 0.37796021 C66.79052503 0.43157911 78.10022612 0.51691395 89.41003418 0.62210083 C87.9475219 3.68822412 86.49304015 5.76069772 84.03503418 8.12210083 C83.15718262 8.97288208 83.15718262 8.97288208 82.26159668 9.84085083 C81.65058105 10.42866333 81.03956543 11.01647583 80.41003418 11.62210083 C79.94427979 12.30627075 79.47852539 12.99044067 78.99865723 13.69534302 C74.7812207 16.83445544 70.26141948 16.22558201 65.14050293 16.23147583 C64.00737167 16.24814804 62.87424042 16.26482025 61.70677185 16.28199768 C58.00362827 16.33141073 54.30094555 16.35243191 50.59753418 16.37210083 C48.05894521 16.39846757 45.52037031 16.42622458 42.98181152 16.45535278 C36.64439614 16.52270278 30.30708961 16.56523097 23.96942139 16.59994507 C19.63824936 16.62690488 15.30735148 16.67039514 10.97633362 16.71514893 C7.33379499 16.75058694 3.69126928 16.77550916 0.0486145 16.7953186 C-1.62297115 16.8048166 -3.29454471 16.81676729 -4.96609497 16.83120728 C-7.2548944 16.84864047 -9.54329691 16.85284504 -11.83215332 16.85256958 C-13.09914063 16.85667847 -14.36612793 16.86078735 -15.67150879 16.86502075 C-18.58996582 16.62210083 -18.58996582 16.62210083 -20.58996582 14.62210083 C-19.91449707 14.03042114 -19.23902832 13.43874146 -18.54309082 12.82913208 C-17.65105957 12.03893677 -16.75902832 11.24874146 -15.83996582 10.43460083 C-14.95824707 9.65729614 -14.07652832 8.87999146 -13.16809082 8.07913208 C-10.52787934 5.778403 -10.52787934 5.778403 -9.00799561 3.00401306 C-5.90764591 -0.05002743 -4.21539207 0.03562678 0 0 Z " fill="#010100" transform="translate(441.5899658203125,208.37789916992188)"/>
<path d="M0 0 C32.01 0 64.02 0 97 0 C95.05268333 3.89463333 92.85716595 6.61163211 89.875 9.6875 C89.20210937 10.43483398 89.20210937 10.43483398 88.515625 11.19726562 C83.74623852 16.10653634 78.32046661 16.00400897 71.88696289 16.12025452 C70.4155284 16.12310595 68.94407648 16.12060396 67.47265625 16.11352539 C66.66194168 16.11367142 65.85122711 16.11381744 65.01594543 16.1139679 C62.36476871 16.11327718 59.71366429 16.10552458 57.0625 16.09765625 C55.21305378 16.09578908 53.36360705 16.09436659 51.51416016 16.09336853 C46.66777153 16.08956692 41.82141331 16.07975694 36.97503662 16.06866455 C32.02112235 16.05839958 27.06720312 16.05386005 22.11328125 16.04882812 C12.40884088 16.03813239 2.70442298 16.02108452 -7 16 C-6 11 -6 11 0 0 Z " fill="#1B7035" transform="translate(235,209)"/>
<path d="M0 0 C3.80887844 1.40748398 5.33958552 3.45303446 7.23828125 7.0703125 C8.95353912 11.41563243 8.40420476 14.91502934 6.8125 19.1875 C3.84065055 23.79899053 1.49857341 25.63744192 -3.875 26.9375 C-8.21351501 27.27312097 -11.21140256 26.18572929 -15 24 C-18.50048818 20.77586615 -19.72798516 17.83336251 -20.09765625 13.0546875 C-19.87710432 8.41427485 -17.88549885 5.11401469 -15.0625 1.5625 C-10.26063504 -0.8874311 -5.29050777 -0.62583723 0 0 Z " fill="#ffffff" transform="translate(504,70)"/>
<path d="M0 0 C3.31784443 2.55094608 5.39287003 4.88944793 6.23046875 8.984375 C6.28683477 13.39702886 5.78222257 16.92684684 3.73046875 20.859375 C-0.27621137 24.26505311 -4.63970251 26.06262072 -9.95703125 25.9296875 C-14.260908 25.13086189 -17.2309748 23.49238422 -19.8515625 19.81640625 C-21.64223018 16.24269075 -22.2122889 12.95577692 -21.76953125 8.984375 C-20.0402905 4.24131467 -17.73004483 1.58243062 -13.45703125 -1.078125 C-8.54070543 -2.32803834 -4.51014334 -2.58860324 0 0 Z " fill="#ffffff" transform="translate(285.76953125,71.015625)"/>
<path d="M0 0 C32.01 0 64.02 0 97 0 C95.02046913 3.95906174 92.74646046 6.65447826 89.6875 9.75 C89.21376953 10.25660156 88.74003906 10.76320312 88.25195312 11.28515625 C85.89362625 13.67897095 84.53875886 14.93809064 81.14453125 15.328125 C80.43683594 15.21984375 79.72914063 15.1115625 79 15 C79.57492187 14.57847656 80.14984375 14.15695313 80.7421875 13.72265625 C82.95101808 12.03737202 85.0398932 10.27286967 87.125 8.4375 C87.80820312 7.83808594 88.49140625 7.23867187 89.1953125 6.62109375 C90.49779892 5.45111136 91.76199159 4.23800841 93 3 C62.00115301 1.865307 31.01612798 1.88880578 0 2 C0 1.34 0 0.68 0 0 Z " fill="#1B622E" transform="translate(235,209)"/>
<path d="M0 0 C12.21 0 24.42 0 37 0 C25.14634146 13.82926829 25.14634146 13.82926829 21.0625 14.4375 C20.0415625 14.2209375 20.0415625 14.2209375 19 14 C19.57492187 13.57847656 20.14984375 13.15695313 20.7421875 12.72265625 C22.95101808 11.03737202 25.0398932 9.27286967 27.125 7.4375 C27.80820312 6.83808594 28.49140625 6.23867187 29.1953125 5.62109375 C30.49779892 4.45111136 31.76199159 3.23800841 33 2 C22.11 1.67 11.22 1.34 0 1 C0 0.67 0 0.34 0 0 Z " fill="#0B592C" transform="translate(295,210)"/>
<path d="M0 0 C4.29 0.33 8.58 0.66 13 1 C12.67 1.66 12.34 2.32 12 3 C10.1746875 2.9690625 10.1746875 2.9690625 8.3125 2.9375 C5.08022678 2.93175884 2.15065259 3.21233685 -1 4 C-0.67 2.68 -0.34 1.36 0 0 Z " fill="#C7BF1C" transform="translate(320,222)"/>
<path d="M0 0 C0.33 0 0.66 0 1 0 C1 1.98 1 3.96 1 6 C0.67 6 0.34 6 0 6 C0 4.02 0 2.04 0 0 Z " fill="#ffffff" transform="translate(675,165)"/>
<path d="M0 0 C0.33 0 0.66 0 1 0 C1 1.98 1 3.96 1 6 C0.67 6 0.34 6 0 6 C0 4.02 0 2.04 0 0 Z " fill="#ffffff" transform="translate(675,157)"/>
<path d="M0 0 C0.33 0 0.66 0 1 0 C1 1.98 1 3.96 1 6 C0.67 6 0.34 6 0 6 C0 4.02 0 2.04 0 0 Z " fill="#ffffff" transform="translate(675,149)"/>
<path d="M0 0 C0.33 0 0.66 0 1 0 C1 1.98 1 3.96 1 6 C0.67 6 0.34 6 0 6 C0 4.02 0 2.04 0 0 Z " fill="#ffffff" transform="translate(675,141)"/>
<path d="M0 0 C0.33 0 0.66 0 1 0 C1 1.98 1 3.96 1 6 C0.67 6 0.34 6 0 6 C0 4.02 0 2.04 0 0 Z " fill="#ffffff" transform="translate(675,125)"/>
<path d="M0 0 C0.33 0 0.66 0 1 0 C1 1.65 1 3.3 1 5 C0.67 5 0.34 5 0 5 C0 3.35 0 1.7 0 0 Z " fill="#ffffff" transform="translate(675,174)"/>
<path d="M0 0 C0.33 0 0.66 0 1 0 C1 1.65 1 3.3 1 5 C0.67 5 0.34 5 0 5 C0 3.35 0 1.7 0 0 Z " fill="#ffffff" transform="translate(304,158)"/>
<path d="M0 0 C0.33 0 0.66 0 1 0 C1 1.65 1 3.3 1 5 C0.67 5 0.34 5 0 5 C0 3.35 0 1.7 0 0 Z " fill="#ffffff" transform="translate(675,134)"/>
<path d="M0 0 C0.33 0 0.66 0 1 0 C1 1.65 1 3.3 1 5 C0.67 5 0.34 5 0 5 C0 3.35 0 1.7 0 0 Z " fill="#ffffff" transform="translate(675,118)"/>
<path d="M0 0 C0.33 0 0.66 0 1 0 C1 1.65 1 3.3 1 5 C0.67 5 0.34 5 0 5 C0 3.35 0 1.7 0 0 Z " fill="#ffffff" transform="translate(675,110)"/>
<path d="M0 0 C4 1 4 1 4 1 Z " fill="#ffffff" transform="translate(450,207)"/>
<path d="" fill="#ffffff" transform="translate(0,0)"/>
<path d="" fill="#ffffff" transform="translate(0,0)"/>
<path d="" fill="#ffffff" transform="translate(0,0)"/>
<path d="" fill="#ffffff" transform="translate(0,0)"/>
<path d="" fill="#ffffff" transform="translate(0,0)"/>
<path d="M0 0 C2 1 2 1 2 1 Z " fill="#ffffff" transform="translate(109,211)"/>
<path d="M0 0 C2 1 2 1 2 1 Z " fill="#ffffff" transform="translate(461,207)"/>
<path d="" fill="#ffffff" transform="translate(0,0)"/>
<path d="" fill="#ffffff" transform="translate(0,0)"/>
<path d="M0 0 C2 1 2 1 2 1 Z " fill="#ffffff" transform="translate(335,163)"/>
<path d="M0 0 C2 1 2 1 2 1 Z " fill="#ffffff" transform="translate(648,153)"/>
<path d="M0 0 C2 1 2 1 2 1 Z " fill="#ffffff" transform="translate(626,153)"/>
<path d="" fill="#ffffff" transform="translate(0,0)"/>
<path d="M0 0 C2 1 2 1 2 1 Z " fill="#ffffff" transform="translate(330,104)"/>
<path d="M0 0 C2 1 2 1 2 1 Z " fill="#ffffff" transform="translate(721,30)"/>
<path d="" fill="#ffffff" transform="translate(0,0)"/>
<path d="" fill="#ffffff" transform="translate(0,0)"/>
<path d="" fill="#ffffff" transform="translate(0,0)"/>
<path d="" fill="#ffffff" transform="translate(0,0)"/>
<path d="" fill="#ffffff" transform="translate(0,0)"/>
<path d="" fill="#ffffff" transform="translate(0,0)"/>
<path d="" fill="#ffffff" transform="translate(0,0)"/>
<path d="" fill="#ffffff" transform="translate(0,0)"/>
<path d="" fill="#ffffff" transform="translate(0,0)"/>
<path d="" fill="#FFFF00" transform="translate(0,0)"/>
<path d="" fill="#ffffff" transform="translate(0,0)"/>
<path d="" fill="#ffffff" transform="translate(0,0)"/>
<path d="" fill="#ffffff" transform="translate(0,0)"/>
<path d="" fill="#ffffff" transform="translate(0,0)"/>
<path d="" fill="#ffffff" transform="translate(0,0)"/>
<path d="" fill="#ffffff" transform="translate(0,0)"/>
<path d="" fill="#ffffff" transform="translate(0,0)"/>
<path d="" fill="#ffffff" transform="translate(0,0)"/>
<path d="" fill="#ffffff" transform="translate(0,0)"/>
<path d="" fill="#ffffff" transform="translate(0,0)"/>
<path d="" fill="#ffffff" transform="translate(0,0)"/>
<path d="" fill="#ffffff" transform="translate(0,0)"/>
<path d="" fill="#ffffff" transform="translate(0,0)"/>
<path d="" fill="#ffffff" transform="translate(0,0)"/>
<path d="" fill="#ffffff" transform="translate(0,0)"/>
<path d="" fill="#ffffff" transform="translate(0,0)"/>
<path d="" fill="#ffffff" transform="translate(0,0)"/>
<path d="" fill="#ffffff" transform="translate(0,0)"/>
<path d="" fill="#ffffff" transform="translate(0,0)"/>
<path d="" fill="#ffffff" transform="translate(0,0)"/>
<path d="" fill="#ffffff" transform="translate(0,0)"/>
<path d="" fill="#ffffff" transform="translate(0,0)"/>
<path d="" fill="#ffffff" transform="translate(0,0)"/>
<path d="" fill="#ffffff" transform="translate(0,0)"/>
<path d="" fill="#ffffff" transform="translate(0,0)"/>
<path d="" fill="#ffffff" transform="translate(0,0)"/>
<path d="" fill="#ffffff" transform="translate(0,0)"/>
<path d="" fill="#ffffff" transform="translate(0,0)"/>
<path d="" fill="#ffffff" transform="translate(0,0)"/>
<path d="" fill="#ffffff" transform="translate(0,0)"/>
<path d="" fill="#ffffff" transform="translate(0,0)"/>
<path d="" fill="#FF8000" transform="translate(0,0)"/>
<path d="" fill="#FFFF00" transform="translate(0,0)"/>
<path d="" fill="#FFFF00" transform="translate(0,0)"/>
<path d="" fill="#808000" transform="translate(0,0)"/>
<path d="" fill="#ffffff" transform="translate(0,0)"/>
<path d="" fill="#ffffff" transform="translate(0,0)"/>
<path d="" fill="#ffffff" transform="translate(0,0)"/>
<path d="" fill="#ffffff" transform="translate(0,0)"/>
<path d="" fill="#ffffff" transform="translate(0,0)"/>
<path d="" fill="#ffffff" transform="translate(0,0)"/>
<path d="" fill="#ffffff" transform="translate(0,0)"/>
<path d="" fill="#ffffff" transform="translate(0,0)"/>
<path d="" fill="#ffffff" transform="translate(0,0)"/>
<path d="" fill="#ffffff" transform="translate(0,0)"/>
<path d="" fill="#ffffff" transform="translate(0,0)"/>
<path d="" fill="#ffffff" transform="translate(0,0)"/>
<path d="" fill="#ffffff" transform="translate(0,0)"/>
<path d="" fill="#ffffff" transform="translate(0,0)"/>
<path d="" fill="#ffffff" transform="translate(0,0)"/>
<path d="" fill="#ffffff" transform="translate(0,0)"/>
<path d="" fill="#ffffff" transform="translate(0,0)"/>
<path d="" fill="#ffffff" transform="translate(0,0)"/>
<path d="" fill="#ffffff" transform="translate(0,0)"/>
<path d="" fill="#ffffff" transform="translate(0,0)"/>
<path d="" fill="#ffffff" transform="translate(0,0)"/>
<path d="" fill="#ffffff" transform="translate(0,0)"/>
<path d="" fill="#ffffff" transform="translate(0,0)"/>
<path d="" fill="#ffffff" transform="translate(0,0)"/>
<path d="" fill="#ffffff" transform="translate(0,0)"/>
<path d="" fill="#ffffff" transform="translate(0,0)"/>
<path d="" fill="#ffffff" transform="translate(0,0)"/>
<path d="" fill="#ffffff" transform="translate(0,0)"/>
<path d="" fill="#ffffff" transform="translate(0,0)"/>
<path d="" fill="#ffffff" transform="translate(0,0)"/>
<path d="" fill="#ffffff" transform="translate(0,0)"/>
<path d="" fill="#ffffff" transform="translate(0,0)"/>
<path d="" fill="#ffffff" transform="translate(0,0)"/>
<path d="" fill="#ffffff" transform="translate(0,0)"/>
<path d="" fill="#ffffff" transform="translate(0,0)"/>
<path d="" fill="#ffffff" transform="translate(0,0)"/>
<path d="" fill="#ffffff" transform="translate(0,0)"/>
<path d="" fill="#ffffff" transform="translate(0,0)"/>
<path d="" fill="#ffffff" transform="translate(0,0)"/>
<path d="" fill="#ffffff" transform="translate(0,0)"/>
<path d="" fill="#ffffff" transform="translate(0,0)"/>
<path d="" fill="#ffffff" transform="translate(0,0)"/>
<path d="" fill="#ffffff" transform="translate(0,0)"/>
<path d="" fill="#ffffff" transform="translate(0,0)"/>
<path d="" fill="#ffffff" transform="translate(0,0)"/>
<path d="" fill="#ffffff" transform="translate(0,0)"/>
<path d="" fill="#ffffff" transform="translate(0,0)"/>
<path d="" fill="#ffffff" transform="translate(0,0)"/>
<path d="" fill="#ffffff" transform="translate(0,0)"/>
<path d="" fill="#ffffff" transform="translate(0,0)"/>
<path d="" fill="#ffffff" transform="translate(0,0)"/>
<path d="" fill="#ffffff" transform="translate(0,0)"/>
<path d="" fill="#ffffff" transform="translate(0,0)"/>
<path d="" fill="#ffffff" transform="translate(0,0)"/>
<path d="" fill="#ffffff" transform="translate(0,0)"/>
<path d="" fill="#ffffff" transform="translate(0,0)"/>
<path d="" fill="#ffffff" transform="translate(0,0)"/>
<path d="" fill="#ffffff" transform="translate(0,0)"/>
<path d="" fill="#ffffff" transform="translate(0,0)"/>
<path d="" fill="#ffffff" transform="translate(0,0)"/>
<path d="" fill="#ffffff" transform="translate(0,0)"/>
<path d="" fill="#ffffff" transform="translate(0,0)"/>
<path d="" fill="#ffffff" transform="translate(0,0)"/>
<path d="" fill="#ffffff" transform="translate(0,0)"/>
<path d="" fill="#ffffff" transform="translate(0,0)"/>
<path d="" fill="#ffffff" transform="translate(0,0)"/>
<path d="" fill="#ffffff" transform="translate(0,0)"/>
<path d="" fill="#ffffff" transform="translate(0,0)"/>
<path d="" fill="#ffffff" transform="translate(0,0)"/>
<path d="" fill="#ffffff" transform="translate(0,0)"/>
<path d="" fill="#ffffff" transform="translate(0,0)"/>
<path d="" fill="#ffffff" transform="translate(0,0)"/>
<path d="" fill="#ffffff" transform="translate(0,0)"/>
<path d="" fill="#ffffff" transform="translate(0,0)"/>
<path d="" fill="#ffffff" transform="translate(0,0)"/>
<path d="" fill="#ffffff" transform="translate(0,0)"/>
<path d="" fill="#ffffff" transform="translate(0,0)"/>
<path d="" fill="#ffffff" transform="translate(0,0)"/>
<path d="" fill="#ffffff" transform="translate(0,0)"/>
<path d="" fill="#ffffff" transform="translate(0,0)"/>
<path d="" fill="#ffffff" transform="translate(0,0)"/>
<path d="" fill="#ffffff" transform="translate(0,0)"/>
<path d="" fill="#ffffff" transform="translate(0,0)"/>
<path d="" fill="#ffffff" transform="translate(0,0)"/>
<path d="" fill="#ffffff" transform="translate(0,0)"/>
<path d="" fill="#ffffff" transform="translate(0,0)"/>
<path d="" fill="#ffffff" transform="translate(0,0)"/>
<path d="" fill="#ffffff" transform="translate(0,0)"/>
<path d="" fill="#ffffff" transform="translate(0,0)"/>
<path d="" fill="#ffffff" transform="translate(0,0)"/>
<path d="" fill="#ffffff" transform="translate(0,0)"/>
<path d="" fill="#ffffff" transform="translate(0,0)"/>
<path d="" fill="#ffffff" transform="translate(0,0)"/>
<path d="" fill="#ffffff" transform="translate(0,0)"/>
<path d="" fill="#ffffff" transform="translate(0,0)"/>
<path d="" fill="#ffffff" transform="translate(0,0)"/>
<path d="" fill="#ffffff" transform="translate(0,0)"/>
<path d="" fill="#ffffff" transform="translate(0,0)"/>
<path d="" fill="#ffffff" transform="translate(0,0)"/>
<path d="" fill="#ffffff" transform="translate(0,0)"/>
<path d="" fill="#ffffff" transform="translate(0,0)"/>
<path d="" fill="#ffffff" transform="translate(0,0)"/>
<path d="" fill="#ffffff" transform="translate(0,0)"/>
<path d="" fill="#ffffff" transform="translate(0,0)"/>
<path d="" fill="#ffffff" transform="translate(0,0)"/>
<path d="" fill="#ffffff" transform="translate(0,0)"/>
<path d="" fill="#ffffff" transform="translate(0,0)"/>
<path d="" fill="#ffffff" transform="translate(0,0)"/>
<path d="" fill="#ffffff" transform="translate(0,0)"/>
<path d="" fill="#ffffff" transform="translate(0,0)"/>
<path d="" fill="#ffffff" transform="translate(0,0)"/>
<path d="" fill="#ffffff" transform="translate(0,0)"/>
<path d="" fill="#ffffff" transform="translate(0,0)"/>
<path d="" fill="#ffffff" transform="translate(0,0)"/>
<path d="" fill="#ffffff" transform="translate(0,0)"/>
<path d="" fill="#ffffff" transform="translate(0,0)"/>
<path d="" fill="#ffffff" transform="translate(0,0)"/>
<path d="" fill="#ffffff" transform="translate(0,0)"/>
<path d="" fill="#ffffff" transform="translate(0,0)"/>
<path d="" fill="#ffffff" transform="translate(0,0)"/>
<path d="" fill="#ffffff" transform="translate(0,0)"/>
<path d="" fill="#ffffff" transform="translate(0,0)"/>
<path d="" fill="#ffffff" transform="translate(0,0)"/>
<path d="" fill="#ffffff" transform="translate(0,0)"/>
<path d="" fill="#ffffff" transform="translate(0,0)"/>
<path d="" fill="#ffffff" transform="translate(0,0)"/>
<path d="" fill="#ffffff" transform="translate(0,0)"/>
<path d="" fill="#ffffff" transform="translate(0,0)"/>
<path d="" fill="#ffffff" transform="translate(0,0)"/>
<path d="" fill="#ffffff" transform="translate(0,0)"/>
<path d="" fill="#ffffff" transform="translate(0,0)"/>
<path d="" fill="#ffffff" transform="translate(0,0)"/>
<path d="" fill="#ffffff" transform="translate(0,0)"/>
<path d="" fill="#ffffff" transform="translate(0,0)"/>
<path d="" fill="#ffffff" transform="translate(0,0)"/>
<path d="" fill="#ffffff" transform="translate(0,0)"/>
<path d="" fill="#ffffff" transform="translate(0,0)"/>
<path d="" fill="#ffffff" transform="translate(0,0)"/>
</svg>
